<svg width="48" height="48" viewBox="0 0 48 48" fill="none" xmlns="http://www.w3.org/2000/svg">
<rect x="0.5" y="0.5" width="47" height="47" rx="9.5" fill="white"/>
<rect x="0.5" y="0.5" width="47" height="47" rx="9.5" stroke="url(#paint0_linear_389_239)"/>
<path d="M39.9814 32.954L36.6626 41.1316C36.5719 41.3563 36.2524 41.3563 36.1617 41.1316L30.1691 26.3492C30.0784 26.1266 29.7589 26.1266 29.6682 26.3492L27.613 31.4161C27.6006 31.4471 27.5821 31.4739 27.5614 31.4965C27.5635 31.5378 27.5573 31.5769 27.5429 31.6161L24.2261 39.7917C24.1354 40.0164 23.8138 40.0164 23.7231 39.7917L17.7306 25.0113C17.6399 24.7866 17.3203 24.7866 17.2296 25.0113L15.1744 30.0783C15.1332 30.1793 15.0342 30.2453 14.9229 30.2453H8.27074C8.07903 30.2453 7.94916 30.0536 8.01925 29.8763L17.2296 7.16775C17.3224 6.94305 17.6419 6.94512 17.7326 7.16775L23.9643 22.5727L29.6682 8.50767C29.7589 8.28297 30.0805 8.28297 30.1712 8.50767L39.9814 32.754C40.0062 32.8179 40.0062 32.8901 39.9814 32.954Z" fill="url(#paint1_linear_389_239)"/>
<defs>
<linearGradient id="paint0_linear_389_239" x1="-3" y1="-5.5" x2="48" y2="51" gradientUnits="userSpaceOnUse">
<stop stop-color="#1B2BB6"/>
<stop offset="1" stop-color="#D26FEB"/>
</linearGradient>
<linearGradient id="paint1_linear_389_239" x1="24" y1="7" x2="24" y2="41.3001" gradientUnits="userSpaceOnUse">
<stop stop-color="#1B2BB6"/>
<stop offset="1" stop-color="#D26FEB"/>
</linearGradient>
</defs>
</svg>
