<svg width="24" height="24" viewBox="0 0 24 24" fill="none" xmlns="http://www.w3.org/2000/svg">
<path d="M17.6129 15.516C19.0653 13.534 19.7159 11.0767 19.4343 8.63572C19.1528 6.19471 17.96 3.95001 16.0945 2.35069C14.2291 0.75138 11.8285 -0.0845965 9.37314 0.0100132C6.91777 0.104623 4.58866 1.12284 2.85178 2.86096C1.11491 4.59908 0.0983577 6.92891 0.00550496 9.38435C-0.0873478 11.8398 0.750346 14.2397 2.35099 16.1041C3.95164 17.9684 6.1972 19.1596 8.63841 19.4394C11.0796 19.7192 13.5365 19.0669 15.5174 17.613H15.5159C15.5609 17.673 15.6089 17.73 15.6629 17.7855L21.4379 23.5605C21.7191 23.842 22.1007 24.0002 22.4986 24.0003C22.8965 24.0004 23.2782 23.8425 23.5596 23.5612C23.8411 23.28 23.9993 22.8984 23.9994 22.5005C23.9996 22.1026 23.8416 21.721 23.5604 21.4395L17.7854 15.6645C17.7318 15.6102 17.6741 15.5601 17.6129 15.5145V15.516ZM17.9999 9.75C17.9999 10.8334 17.7865 11.9062 17.3719 12.9071C16.9573 13.9081 16.3496 14.8175 15.5835 15.5836C14.8174 16.3497 13.908 16.9574 12.907 17.372C11.9061 17.7866 10.8333 18 9.74988 18C8.66648 18 7.59368 17.7866 6.59274 17.372C5.59181 16.9574 4.68233 16.3497 3.91625 15.5836C3.15017 14.8175 2.54248 13.9081 2.12788 12.9071C1.71327 11.9062 1.49988 10.8334 1.49988 9.75C1.49988 7.56196 2.36908 5.46354 3.91625 3.91637C5.46343 2.36919 7.56185 1.5 9.74988 1.5C11.9379 1.5 14.0363 2.36919 15.5835 3.91637C17.1307 5.46354 17.9999 7.56196 17.9999 9.75Z" fill="#606165"/>
</svg>
