<svg width="22" height="22" viewBox="0 0 22 22" fill="none" xmlns="http://www.w3.org/2000/svg">
<path d="M11 0.998001C16.524 0.998001 21.002 5.476 21.002 11C21.002 16.523 16.524 21 11 21C5.47605 21.001 0.998047 16.523 0.998047 11C0.998047 5.476 5.47605 0.998001 11 0.998001ZM11 2.498C9.87586 2.48581 8.76041 2.6967 7.71827 3.11847C6.67612 3.54024 5.72798 4.16452 4.92871 4.95517C4.12944 5.74582 3.49492 6.68713 3.06187 7.72464C2.62882 8.76215 2.40584 9.87524 2.40584 10.9995C2.40584 12.1238 2.62882 13.2369 3.06187 14.2744C3.49492 15.3119 4.12944 16.2532 4.92871 17.0438C5.72798 17.8345 6.67612 18.4588 7.71827 18.8805C8.76041 19.3023 9.87586 19.5132 11 19.501C13.2388 19.4767 15.3776 18.5703 16.9522 16.9786C18.5267 15.3869 19.4098 13.2384 19.4098 10.9995C19.4098 8.7606 18.5267 6.61207 16.9522 5.02037C15.3776 3.42866 13.2388 2.52228 11 2.498ZM7.46205 13.783C7.88295 14.3188 8.42021 14.7518 9.03317 15.0492C9.64612 15.3467 10.3187 15.5009 11 15.5C11.6806 15.5008 12.3525 15.347 12.9649 15.05C13.5773 14.7531 14.1142 14.3209 14.535 13.786C14.5961 13.7087 14.6718 13.6442 14.7578 13.5962C14.8438 13.5482 14.9384 13.5175 15.0362 13.5061C15.134 13.4946 15.2332 13.5025 15.3279 13.5294C15.4227 13.5562 15.5113 13.6014 15.5885 13.6625C15.6658 13.7236 15.7303 13.7993 15.7784 13.8852C15.8264 13.9712 15.857 14.0658 15.8685 14.1637C15.88 14.2615 15.872 14.3606 15.8452 14.4554C15.8184 14.5502 15.7731 14.6387 15.712 14.716C15.1508 15.4286 14.435 16.0044 13.6188 16.4001C12.8026 16.7957 11.9071 17.0008 11 17C10.0918 17.0007 9.19528 16.795 8.37826 16.3982C7.56124 16.0015 6.84512 15.4242 6.28405 14.71C6.22048 14.6329 6.17295 14.5439 6.14425 14.4482C6.11555 14.3525 6.10626 14.2521 6.11692 14.1527C6.12758 14.0534 6.15799 13.9572 6.20635 13.8698C6.2547 13.7823 6.32004 13.7055 6.39852 13.6436C6.477 13.5818 6.56704 13.5363 6.66336 13.5097C6.75967 13.4832 6.86032 13.4762 6.95939 13.4891C7.05847 13.5019 7.15397 13.5345 7.24028 13.5848C7.3266 13.6351 7.402 13.7022 7.46205 13.782V13.783ZM8.00005 7.75C8.16711 7.74527 8.33342 7.7741 8.48915 7.83476C8.64488 7.89543 8.78686 7.98671 8.90669 8.10321C9.02653 8.2197 9.12179 8.35904 9.18684 8.51299C9.25188 8.66694 9.2854 8.83237 9.2854 8.9995C9.2854 9.16663 9.25188 9.33206 9.18684 9.48601C9.12179 9.63996 9.02653 9.7793 8.90669 9.8958C8.78686 10.0123 8.64488 10.1036 8.48915 10.1642C8.33342 10.2249 8.16711 10.2537 8.00005 10.249C7.67478 10.2398 7.36592 10.1041 7.1391 9.8708C6.91229 9.63747 6.7854 9.3249 6.7854 8.9995C6.7854 8.6741 6.91229 8.36153 7.1391 8.12821C7.36592 7.89488 7.67478 7.7592 8.00005 7.75ZM14 7.75C14.1671 7.74527 14.3334 7.7741 14.4891 7.83476C14.6449 7.89543 14.7869 7.98671 14.9067 8.10321C15.0265 8.2197 15.1218 8.35904 15.1868 8.51299C15.2519 8.66694 15.2854 8.83237 15.2854 8.9995C15.2854 9.16663 15.2519 9.33206 15.1868 9.48601C15.1218 9.63996 15.0265 9.7793 14.9067 9.8958C14.7869 10.0123 14.6449 10.1036 14.4891 10.1642C14.3334 10.2249 14.1671 10.2537 14 10.249C13.6748 10.2398 13.3659 10.1041 13.1391 9.8708C12.9123 9.63747 12.7854 9.3249 12.7854 8.9995C12.7854 8.6741 12.9123 8.36153 13.1391 8.12821C13.3659 7.89488 13.6748 7.7592 14 7.75Z" fill="#606165" stroke="#606165" stroke-width="0.6"/>
</svg>
